<svg id="Layer_1" data-name="Layer 1" xmlns="http://www.w3.org/2000/svg" viewBox="0 0 1035.07 646.26">
  <defs>
    <style>
      .cls-1 {
        fill: #bed0d8;
      }

      .cls-2 {
        fill: #8eaab3;
      }

      .cls-3 {
        fill: #d4dee2;
      }

      .cls-4 {
        fill: #1c1a12;
      }

      .cls-5 {
        fill: #595959;
      }

      .cls-18, .cls-6 {
        fill: #fff;
      }

      .cls-7 {
        fill: #0e7a9b;
      }

      .cls-8 {
        fill: #1a1a1a;
      }

      .cls-9 {
        fill: gray;
      }

      .cls-10 {
        fill: #666;
      }

      .cls-11 {
        fill: #4879f0;
      }

      .cls-12 {
        fill: #0e689b;
      }

      .cls-13 {
        fill: #ffae82;
      }

      .cls-14 {
        fill: #3339c9;
      }

      .cls-15 {
        fill: #fc806d;
      }

      .cls-16 {
        opacity: 0.8;
      }

      .cls-17 {
        fill: #333;
      }

      .cls-18 {
        opacity: 0.6;
      }
    </style>
  </defs>
  <title>home pic</title>
  <g>
    <g>
      <g>
        <g>
          <path class="cls-1" d="M395.58,651.33c20.61-19.89,62.65,17.77,87.09,43.46,11.24,11.8,18.75,21.08,18.75,21.08,3.76,3.61,7,6.87,9.7,9.82,1.48,1.62,2.79,3.11,4,4.52l-34.46,13.64c-10.76-6.42-22.37-13.5-29.95-18.53C418.43,703.87,376.11,670.12,395.58,651.33Z" transform="translate(152.94 -195.4)"/>
          <path class="cls-2" d="M428.45,677a1.67,1.67,0,0,1,2.33-.28c2.24,1.75,46.86,36.67,71.09,58.71l-3.44,1.36c-24.7-22.25-69.15-57-69.69-57.46A1.67,1.67,0,0,1,428.45,677Z" transform="translate(152.94 -195.4)"/>
        </g>
        <g>
          <path class="cls-3" d="M490.26,674.44c1.93,4.84,3.51,9.13,4.76,12.95,1,2.94,1.73,5.55,2.29,7.87l-27.25,10.79c-8.69-12.32-22.58-32.26-29.91-44-20.48-32.87-45-81.1-19.53-90.16,27-9.58,49.68,42.11,61.29,75.61C487.26,662.88,490.26,674.44,490.26,674.44Z" transform="translate(152.94 -195.4)"/>
          <path class="cls-1" d="M482.58,701.09c-11.24-28.3-43-89.31-43.37-90a1.65,1.65,0,1,1,2.93-1.53c1.44,2.75,32.3,62,43.52,90.3Z" transform="translate(152.94 -195.4)"/>
        </g>
      </g>
      <g>
        <g>
          <path class="cls-1" d="M761.59,367.36s121.72-38.83,106.72-84.56C851.78,232.36,783.66,308.57,761.59,367.36Z" transform="translate(152.94 -195.4)"/>
          <path class="cls-2" d="M749.46,379.22c27.44-31.51,72.25-68.76,72.81-69.22a1,1,0,0,1,1.43.13,1,1,0,0,1-.14,1.43c-.56.46-45.68,38-72.91,69.37Z" transform="translate(152.94 -195.4)"/>
        </g>
        <g>
          <path class="cls-3" d="M773,331.45s-3.53-149.14,56.47-135.12C875.33,207.05,834,291.16,773,331.45Z" transform="translate(152.94 -195.4)"/>
          <path class="cls-1" d="M748.44,385.15c23.24-52,61.7-136.3,62.15-137.3a1,1,0,0,1,1.85.84c-.46,1-39.47,86.52-62.65,138.4Z" transform="translate(152.94 -195.4)"/>
        </g>
      </g>
      <g>
        <path class="cls-1" d="M769.29,736.54c25.22-35.19,48.9-76.1,62-103.32,17.1-35.57,23.41-63.79,18.76-83.89a2.48,2.48,0,0,0-4.83,1.12c8.13,35.13-20.15,101.45-82.06,186Z" transform="translate(152.94 -195.4)"/>
        <path class="cls-3" d="M843.88,600.24s17.61,10.88,35.52-20.83C879.4,579.41,847.72,570.41,843.88,600.24Z" transform="translate(152.94 -195.4)"/>
        <path class="cls-3" d="M835.49,617.07s11.84-17-18.82-36.63C816.67,580.44,805.92,611.57,835.49,617.07Z" transform="translate(152.94 -195.4)"/>
        <path class="cls-3" d="M848.92,565.35s16.82-12.06-5.53-40.81C843.39,524.54,822.87,550.31,848.92,565.35Z" transform="translate(152.94 -195.4)"/>
        <path class="cls-3" d="M819.66,651.43s12.9,16.19,40.47-7.59C860.13,643.84,833.37,624.66,819.66,651.43Z" transform="translate(152.94 -195.4)"/>
        <path class="cls-3" d="M808.52,667.28s14.6-14.67-12.2-39.33C796.32,628,780.35,656.75,808.52,667.28Z" transform="translate(152.94 -195.4)"/>
        <path class="cls-3" d="M795.43,690.49S808,706.92,836,683.67C836,683.67,809.64,664,795.43,690.49Z" transform="translate(152.94 -195.4)"/>
        <path class="cls-3" d="M785.31,708.41s-20.44-3.28-13.28-39C772,669.43,801.89,683.31,785.31,708.41Z" transform="translate(152.94 -195.4)"/>
      </g>
    </g>
    <ellipse class="cls-1" cx="633.08" cy="622.88" rx="367.59" ry="23.39"/>
    <path class="cls-4" d="M793.61,254.84V783.42a30,30,0,0,1-30,30H500.39a30,30,0,0,1-30-30V254.84a30,30,0,0,1,30-30H763.61a30,30,0,0,1,30,30Z" transform="translate(152.94 -195.4)"/>
    <g>
      <path class="cls-5" d="M616.15,172.22h6.79a.38.38,0,0,1,.38.38v69.07a.38.38,0,0,1-.38.38h-6.79a3.8,3.8,0,0,1-3.8-3.8V176A3.8,3.8,0,0,1,616.15,172.22Z"/>
      <path class="cls-5" d="M797.18,367.62H804a.38.38,0,0,1,.38.38v69.07a.38.38,0,0,1-.38.38h-6.79a3.8,3.8,0,0,1-3.8-3.8V371.42A3.8,3.8,0,0,1,797.18,367.62Z" transform="translate(1750.66 609.67) rotate(180)"/>
      <path class="cls-5" d="M616.15,251.53h6.79a.38.38,0,0,1,.38.38V321a.38.38,0,0,1-.38.38h-6.79a3.8,3.8,0,0,1-3.8-3.8V255.33A3.8,3.8,0,0,1,616.15,251.53Z"/>
    </g>
    <g>
      <path class="cls-3" d="M778.65,256.14v526a16.35,16.35,0,0,1-16.34,16.34H501.69A16.36,16.36,0,0,1,487,789.33s0,0,0-.05a16,16,0,0,1-1.66-7.16v-526a16.35,16.35,0,0,1,16.34-16.34H762.31a16.36,16.36,0,0,1,7.82,2s0,0,0,0A16.38,16.38,0,0,1,778.65,256.14Z" transform="translate(152.94 -195.4)"/>
      <path class="cls-2" d="M601,697.91h-8.68a1.4,1.4,0,0,0-1.35,1l-1.26,4.64H509.91a1.38,1.38,0,0,0-1,.48,1.36,1.36,0,0,0-.32,1.09l1.27,9.18a1.27,1.27,0,0,0,0,.34,1.36,1.36,0,0,0,.19.7L511.59,727l.38,2.75,1.52,10.94.38,2.75,1.35,9.68a1.38,1.38,0,0,0,1.36,1.18h59.08l-1.93,6.92a7.54,7.54,0,0,1-7.23,5.49H524.44a1.4,1.4,0,0,0-1.42,1.25,1.36,1.36,0,0,0,1.37,1.5h5.23a5.42,5.42,0,1,0,5.85,0h23.71a5.42,5.42,0,1,0,5.85,0h1.47a10.29,10.29,0,0,0,9.88-7.5l2.36-8.49h0l.06-.17,2.74-9.86.77-2.75,3-10.94.77-2.75,3.15-11.3.38-1.38h0l2.5-9,0-.13,1.23-4.5H601a1.39,1.39,0,1,0,0-2.78Zm-22.67,46.65h0l-.06.18-1.89,6.77H517.78l-1.12-8.11h62Zm1.09-3.9H516.27l-1.52-10.94h67.76ZM583.27,727H514.36L512.84,716h73.48Zm3.81-13.68H512.46l-1-7H589Z" transform="translate(152.94 -195.4)"/>
      <g>
        <path class="cls-2" d="M716.48,443.07H541.93a26.31,26.31,0,0,1,0-52.61H716.48a26.31,26.31,0,0,1,0,52.61ZM541.93,393.25a23.52,23.52,0,0,0,0,47H716.48a23.52,23.52,0,0,0,0-47Z" transform="translate(152.94 -195.4)"/>
        <g>
          <polygon class="cls-6" points="706.28 231.82 696.1 237.18 698.04 225.84 689.8 217.8 701.19 216.15 706.28 205.83 711.38 216.15 722.76 217.8 714.52 225.84 716.47 237.18 706.28 231.82"/>
          <polygon class="cls-6" points="758.25 231.82 748.06 237.18 750.01 225.84 741.77 217.8 753.15 216.15 758.25 205.83 763.34 216.15 774.73 217.8 766.49 225.84 768.43 237.18 758.25 231.82"/>
          <polygon class="cls-6" points="810.21 231.82 800.02 237.18 801.97 225.84 793.73 217.8 805.12 216.15 810.21 205.83 815.3 216.15 826.69 217.8 818.45 225.84 820.39 237.18 810.21 231.82"/>
          <polygon class="cls-2" points="862.17 231.82 851.99 237.18 853.93 225.84 845.69 217.8 857.08 216.15 862.17 205.83 867.26 216.15 878.65 217.8 870.41 225.84 872.36 237.18 862.17 231.82"/>
        </g>
      </g>
      <g>
        <rect class="cls-6" x="658.61" y="277.42" width="258.34" height="92.98" rx="3.92"/>
        <g>
          <path class="cls-7" d="M594.41,509.37v28.86s-3.71-.09-11.59-.09c-1,0-2.83-1.45-3.64-1.42a65,65,0,0,0-10.1,1.42h-50a12.64,12.64,0,0,1,1.56-4.63c6.86-12.28,32.85-17.81,37.06-23.35,1.45-1.9,3-3.7,4.48-5.27A27.94,27.94,0,0,1,566,501c2.28-1.55,5.74,4.58,5.74,4.58,5.3,2.55,13.47,1.43,18.4.38A3.49,3.49,0,0,1,594.41,509.37Z" transform="translate(152.94 -195.4)"/>
          <path d="M594.41,533.51v4.72s-3.71-.09-11.59-.09c-1,0-2.83-1.45-3.64-1.42a65,65,0,0,0-10.1,1.42h-50a12.64,12.64,0,0,1,1.56-4.63Z" transform="translate(152.94 -195.4)"/>
          <g>
            <path d="M535.72,521.43s2-1,3.22-1.56c.12-.06,1.55-1.78,3.52-1.31a9.07,9.07,0,0,1,5.19,3.84,1,1,0,0,0,1.33.29h0a1,1,0,0,0,.34-1.37c-.8-1.31-2.6-3.71-5.26-4.36S537.73,517.05,535.72,521.43Z" transform="translate(152.94 -195.4)"/>
            <path d="M539.82,519.5s2-.91,3.22-1.51c.11-.06,1.54-1.84,3.51-1.37a9,9,0,0,1,5.19,3.84,1,1,0,0,0,1.34.29h0a1,1,0,0,0,.34-1.37c-.81-1.31-2.6-3.71-5.27-4.35S541.82,515.12,539.82,519.5Z" transform="translate(152.94 -195.4)"/>
            <path d="M543.68,518s2-1,3.22-1.57c.12-.06,1.55-1.78,3.52-1.31a9,9,0,0,1,5.18,3.84,1,1,0,0,0,1.34.29h0a1,1,0,0,0,.34-1.36c-.8-1.32-2.6-3.72-5.26-4.36S545.69,513.57,543.68,518Z" transform="translate(152.94 -195.4)"/>
            <path d="M547.64,516s2-.91,3.22-1.51c.12-.06,1.54-1.83,3.51-1.37a9.05,9.05,0,0,1,5.19,3.85,1,1,0,0,0,1.34.29h0a1,1,0,0,0,.34-1.37c-.81-1.32-2.6-3.72-5.27-4.36S549.65,511.66,547.64,516Z" transform="translate(152.94 -195.4)"/>
          </g>
        </g>
        <g>
          <path class="cls-3" d="M752.51,490.74h-144a1.26,1.26,0,1,1,0-2.51h144a1.26,1.26,0,0,1,0,2.51Z" transform="translate(152.94 -195.4)"/>
          <path class="cls-3" d="M752.51,505.79h-144a1.26,1.26,0,1,1,0-2.52h144a1.26,1.26,0,0,1,0,2.52Z" transform="translate(152.94 -195.4)"/>
          <path class="cls-3" d="M752.51,520.83h-144a1.26,1.26,0,1,1,0-2.51h144a1.26,1.26,0,0,1,0,2.51Z" transform="translate(152.94 -195.4)"/>
          <path class="cls-3" d="M752.51,535.88h-144a1.26,1.26,0,1,1,0-2.51h144a1.26,1.26,0,0,1,0,2.51Z" transform="translate(152.94 -195.4)"/>
          <path class="cls-3" d="M752.51,550.93h-144a1.26,1.26,0,0,1,0-2.52h144a1.26,1.26,0,0,1,0,2.52Z" transform="translate(152.94 -195.4)"/>
        </g>
      </g>
      <g>
        <rect class="cls-6" x="658.61" y="390.76" width="258.34" height="92.98" rx="3.92"/>
        <g>
          <path class="cls-8" d="M575.41,629.88c-.2.07-.38.11-.55.16,0,.38,0,.77,0,1.16h0c.35,11.72.51,25,.56,34a104.89,104.89,0,0,1-41.62,0c0-9.05,0-22.41.3-34.13l0-1.47c0-.17,0-.34,0-.51H534a11.15,11.15,0,0,1-3.81-.87,15,15,0,0,1-2.43-1.33c-.22-.15-.43-.3-.62-.45a13.75,13.75,0,0,1-2.17-2,50.12,50.12,0,0,1,2.83-6c.39-.7.78-1.4,1.19-2.08a95,95,0,0,1,6.91-10.15h0c.77-1.08,3.23-2.74,6.06-4.45l1.72-1a7.28,7.28,0,0,1,1.26-.6c.24-.09.48-.17.73-.24a8.19,8.19,0,0,1,2.15-.28.72.72,0,0,1,.72.72v0a6.53,6.53,0,0,0,6.77,6.53,6.64,6.64,0,0,0,6.29-6.68h0a.59.59,0,0,1,.59-.6,5.56,5.56,0,0,1,.82,0,6.29,6.29,0,0,1,2.43.84l.53.31c3.13,1.87,6.06,3.79,6.95,5.05,1.33,1.64,8,11,11.13,18.49C582.52,626.58,578.14,629.05,575.41,629.88Z" transform="translate(152.94 -195.4)"/>
          <path class="cls-9" d="M538.89,622.6l-4.76,8.46c0-.49,0-1,0-1.47,0-.17,0-.34,0-.5H534l3.94-7a.55.55,0,0,1,.75-.21A.54.54,0,0,1,538.89,622.6Z" transform="translate(152.94 -195.4)"/>
          <path class="cls-9" d="M574.86,630l0,1.17-4.84-8.6a.55.55,0,0,1,1-.53l4.4,7.81Z" transform="translate(152.94 -195.4)"/>
          <g>
            <g>
              <path class="cls-10" d="M545.07,600.87a1.7,1.7,0,0,1-3.11,1l1.72-1a7.28,7.28,0,0,1,1.26-.6A1.62,1.62,0,0,1,545.07,600.87Z" transform="translate(152.94 -195.4)"/>
              <path class="cls-10" d="M566,600.89a1.7,1.7,0,0,1-3.4,0,1.68,1.68,0,0,1,.44-1.13,6.29,6.29,0,0,1,2.43.84Z" transform="translate(152.94 -195.4)"/>
            </g>
            <g>
              <circle class="cls-10" cx="689.35" cy="414.07" r="1.7"/>
              <circle class="cls-10" cx="696.31" cy="414.07" r="1.7"/>
              <circle class="cls-10" cx="703.28" cy="414.07" r="1.7"/>
              <circle class="cls-10" cx="710.24" cy="414.07" r="1.7"/>
              <circle class="cls-10" cx="717.21" cy="414.07" r="1.7"/>
              <circle class="cls-10" cx="724.17" cy="414.07" r="1.7"/>
            </g>
            <g>
              <path class="cls-10" d="M531.14,618.07a1.7,1.7,0,0,1-1.69,1.7,1.72,1.72,0,0,1-1.65-1.26c.39-.7.78-1.4,1.19-2.08a1.7,1.7,0,0,1,2.15,1.64Z" transform="translate(152.94 -195.4)"/>
              <circle class="cls-10" cx="689.35" cy="422.67" r="1.7"/>
              <circle class="cls-10" cx="696.31" cy="422.67" r="1.7"/>
              <circle class="cls-10" cx="703.28" cy="422.67" r="1.7"/>
              <circle class="cls-10" cx="710.24" cy="422.67" r="1.7"/>
              <circle class="cls-10" cx="717.21" cy="422.67" r="1.7"/>
              <circle class="cls-10" cx="724.17" cy="422.67" r="1.7"/>
              <circle class="cls-10" cx="731.14" cy="422.67" r="1.7"/>
            </g>
            <g>
              <path class="cls-10" d="M530.19,628.2a1.7,1.7,0,1,0-2.45-1.53,1.36,1.36,0,0,0,0,.2Z" transform="translate(152.94 -195.4)"/>
              <path class="cls-10" d="M538.11,626.67a1.7,1.7,0,1,1-1.7-1.7A1.7,1.7,0,0,1,538.11,626.67Z" transform="translate(152.94 -195.4)"/>
              <path class="cls-10" d="M545.07,626.67a1.7,1.7,0,1,1-1.69-1.7A1.7,1.7,0,0,1,545.07,626.67Z" transform="translate(152.94 -195.4)"/>
              <path class="cls-10" d="M552,626.67a1.7,1.7,0,1,1-1.7-1.7A1.7,1.7,0,0,1,552,626.67Z" transform="translate(152.94 -195.4)"/>
              <path class="cls-10" d="M559,626.67a1.7,1.7,0,1,1-1.7-1.7A1.7,1.7,0,0,1,559,626.67Z" transform="translate(152.94 -195.4)"/>
              <path class="cls-10" d="M566,626.67a1.7,1.7,0,1,1-1.7-1.7A1.7,1.7,0,0,1,566,626.67Z" transform="translate(152.94 -195.4)"/>
              <path class="cls-10" d="M572.94,626.67a1.7,1.7,0,1,1-1.7-1.7A1.7,1.7,0,0,1,572.94,626.67Z" transform="translate(152.94 -195.4)"/>
              <path class="cls-10" d="M579.9,626.67a1.7,1.7,0,1,1-1.7-1.7A1.7,1.7,0,0,1,579.9,626.67Z" transform="translate(152.94 -195.4)"/>
            </g>
            <g>
              <circle class="cls-10" cx="689.35" cy="439.87" r="1.7"/>
              <circle class="cls-10" cx="696.31" cy="439.87" r="1.7"/>
              <circle class="cls-10" cx="703.28" cy="439.87" r="1.7"/>
              <circle class="cls-10" cx="710.24" cy="439.87" r="1.7"/>
              <circle class="cls-10" cx="717.21" cy="439.87" r="1.7"/>
              <circle class="cls-10" cx="724.17" cy="439.87" r="1.7"/>
            </g>
            <g>
              <circle class="cls-10" cx="689.35" cy="448.46" r="1.7"/>
              <circle class="cls-10" cx="696.31" cy="448.46" r="1.7"/>
              <circle class="cls-10" cx="703.28" cy="448.46" r="1.7"/>
              <circle class="cls-10" cx="710.24" cy="448.46" r="1.7"/>
              <circle class="cls-10" cx="717.21" cy="448.46" r="1.7"/>
              <circle class="cls-10" cx="724.17" cy="448.46" r="1.7"/>
            </g>
            <g>
              <circle class="cls-10" cx="689.35" cy="457.06" r="1.7"/>
              <circle class="cls-10" cx="696.31" cy="457.06" r="1.7"/>
              <circle class="cls-10" cx="703.28" cy="457.06" r="1.7"/>
              <circle class="cls-10" cx="710.24" cy="457.06" r="1.7"/>
              <circle class="cls-10" cx="717.21" cy="457.06" r="1.7"/>
              <circle class="cls-10" cx="724.17" cy="457.06" r="1.7"/>
            </g>
            <g>
              <circle class="cls-10" cx="689.35" cy="465.66" r="1.7"/>
              <circle class="cls-10" cx="696.31" cy="465.66" r="1.7"/>
              <circle class="cls-10" cx="703.28" cy="465.66" r="1.7"/>
              <circle class="cls-10" cx="710.24" cy="465.66" r="1.7"/>
              <circle class="cls-10" cx="717.21" cy="465.66" r="1.7"/>
              <circle class="cls-10" cx="724.17" cy="465.66" r="1.7"/>
            </g>
          </g>
        </g>
        <g>
          <path class="cls-3" d="M752.51,603.39h-144a1.26,1.26,0,0,1,0-2.52h144a1.26,1.26,0,0,1,0,2.52Z" transform="translate(152.94 -195.4)"/>
          <path class="cls-3" d="M752.51,618.44h-144a1.26,1.26,0,1,1,0-2.52h144a1.26,1.26,0,0,1,0,2.52Z" transform="translate(152.94 -195.4)"/>
          <path class="cls-3" d="M752.51,633.48h-144a1.26,1.26,0,1,1,0-2.51h144a1.26,1.26,0,0,1,0,2.51Z" transform="translate(152.94 -195.4)"/>
          <path class="cls-3" d="M752.51,648.53h-144a1.26,1.26,0,0,1,0-2.52h144a1.26,1.26,0,0,1,0,2.52Z" transform="translate(152.94 -195.4)"/>
          <path class="cls-3" d="M752.51,663.58h-144a1.26,1.26,0,0,1,0-2.52h144a1.26,1.26,0,0,1,0,2.52Z" transform="translate(152.94 -195.4)"/>
        </g>
      </g>
      <g>
        <g>
          <path class="cls-7" d="M786.92,430.32l24.8,56.53a7.24,7.24,0,0,0,9.55,3.73l56.53-24.8a7.25,7.25,0,0,0,3.72-9.55L856.73,399.7a7.25,7.25,0,0,0-9.55-3.72l-56.53,24.79A7.25,7.25,0,0,0,786.92,430.32Zm37.7-10.9a3.73,3.73,0,1,1,1.5-3.63A3.74,3.74,0,0,1,824.62,419.42Z" transform="translate(152.94 -195.4)"/>
          <path class="cls-6" d="M808.51,444.62c-2.72-6.21-.27-11.52,5-13.85s10.87-.53,13.6,5.68.28,11.53-5,13.86S811.26,450.89,808.51,444.62Zm25.84-22.38,8.47-3.72-8.56,45.57-8.47,3.72ZM820,439.57c-1.47-3.36-3-3.88-4.11-3.39s-1.77,2-.29,5.32,3,3.88,4.11,3.39S821.51,442.93,820,439.57Zm21.44,10.31c-2.73-6.21-.28-11.52,5-13.85s10.87-.53,13.6,5.68.28,11.53-5,13.86S844.21,456.14,841.47,449.88ZM853,444.83c-1.48-3.36-3-3.88-4.12-3.39s-1.76,2-.29,5.32,3,3.88,4.11,3.39S854.46,448.19,853,444.83Z" transform="translate(152.94 -195.4)"/>
        </g>
        <path class="cls-11" d="M826.85,388.25c-3.8-17.93-13.51-38.34-26-54.61-.25-.34-.52-.67-.78-1v3.18c12.93,17.21,21.67,37.27,25,52.82a56.3,56.3,0,0,1,1.39,16.44A16.28,16.28,0,0,1,824,413a7,7,0,0,1-1.76,1.73,6.68,6.68,0,0,1-3.44,1.1,3.64,3.64,0,0,0,.17,1.84,8.47,8.47,0,0,0,4.29-1.43,8.72,8.72,0,0,0,2.17-2.12c1.69-2.29,2.69-5.65,3-9.87A60.22,60.22,0,0,0,826.85,388.25ZM800.1,404.86c-19-23.49-45.71-92.61-50.27-104.61a2,2,0,0,0-.1-.26l1.2.26h6.74a62.43,62.43,0,0,0-9.21-2.36.91.91,0,0,0-1,1.22c.07.19.22.57.43,1.14,4,10.62,32.31,84.68,52.22,107.43a28.3,28.3,0,0,0,5.32,4.93c.52.36,1,.69,1.54,1l2-.89c-.83-.48-1.68-1-2.57-1.62A31.09,31.09,0,0,1,800.1,404.86Z" transform="translate(152.94 -195.4)"/>
      </g>
      <g>
        <path class="cls-6" d="M816.81,323.41v38.34H447.53V323.41h0c44.5-8.08,58.71-83.61,58.71-83.61H758.09S772.29,315.33,816.81,323.41Z" transform="translate(152.94 -195.4)"/>
        <rect class="cls-1" x="600.47" y="128.01" width="369.28" height="38.34"/>
        <path class="cls-7" d="M553.14,239.8s-14.2,75.53-58.72,83.61v38.34H447.53V323.41c44.52-8.08,58.72-83.61,58.72-83.61Z" transform="translate(152.94 -195.4)"/>
        <path class="cls-7" d="M816.82,323.41v38.34H769.93V323.41c-44.52-8.08-58.72-83.61-58.72-83.61H758.1S772.3,315.33,816.82,323.41Z" transform="translate(152.94 -195.4)"/>
        <path class="cls-7" d="M599.24,323.68v38.07h-44l-1.1-38.34c27.95-21.44,30.15-83.61,30.15-83.61h29C614.65,284.75,599.24,323.68,599.24,323.68Z" transform="translate(152.94 -195.4)"/>
        <path class="cls-7" d="M704.9,323.41l-1.11,38.34H659.85V323.68s-15.42-38.93-14.06-83.88h29S677,302,704.9,323.41Z" transform="translate(152.94 -195.4)"/>
        <rect class="cls-12" x="600.47" y="128.01" width="46.89" height="38.34"/>
        <path class="cls-12" d="M816.82,323.41v38.34H769.93V323.41h46.89Z" transform="translate(152.94 -195.4)"/>
        <path class="cls-12" d="M599.34,323.41l-.1.27v38.07H555.3l-1.11-38.34Z" transform="translate(152.94 -195.4)"/>
        <path class="cls-12" d="M704.9,323.41l-1.11,38.34H659.85V323.68l-.11-.27Z" transform="translate(152.94 -195.4)"/>
      </g>
    </g>
    <g>
      <rect class="cls-4" x="694.22" y="40.41" width="181.43" height="30.43" rx="5.8"/>
      <rect class="cls-5" x="723.03" y="49.89" width="108.74" height="7.48" rx="1.43"/>
      <path class="cls-5" d="M705.32,248.78a4.49,4.49,0,1,1-4.49-4.49A4.49,4.49,0,0,1,705.32,248.78Z" transform="translate(152.94 -195.4)"/>
    </g>
    <g>
      <path class="cls-2" d="M754.66,702.39H607.24a1.3,1.3,0,1,1,0-2.6H754.66a1.3,1.3,0,1,1,0,2.6Z" transform="translate(152.94 -195.4)"/>
      <path class="cls-2" d="M754.66,719H607.24a1.3,1.3,0,1,1,0-2.6H754.66a1.3,1.3,0,1,1,0,2.6Z" transform="translate(152.94 -195.4)"/>
      <path class="cls-2" d="M754.66,735.64H607.24a1.3,1.3,0,1,1,0-2.6H754.66a1.3,1.3,0,0,1,0,2.6Z" transform="translate(152.94 -195.4)"/>
      <path class="cls-2" d="M754.66,752.27H607.24a1.3,1.3,0,1,1,0-2.6H754.66a1.3,1.3,0,0,1,0,2.6Z" transform="translate(152.94 -195.4)"/>
      <path class="cls-2" d="M754.66,768.9H607.24a1.3,1.3,0,1,1,0-2.6H754.66a1.3,1.3,0,1,1,0,2.6Z" transform="translate(152.94 -195.4)"/>
    </g>
    <g>
      <path class="cls-4" d="M374.9,511.27c-8.52,5.68-27.93,10.29-47.58,12.48-25.33,2.81-51.06,1.59-54.38-6.56-.37-.92-.71-1.88-1-2.89l0-.08c-.22-.74-.43-1.5-.62-2.27-.35-1.39-.64-2.83-.88-4.3q-.22-1.29-.39-2.61c-1.78-13.49-.2-28.31-.2-28.31l96.11-20.09s9.46,27.43,10.94,43.58c.08.89.14,1.74.17,2.56C377.18,507,376.61,510.13,374.9,511.27Z" transform="translate(152.94 -195.4)"/>
      <g>
        <polygon class="cls-13" points="526.25 571.28 530.9 593.04 551.41 589.44 547.52 568.88 526.25 571.28"/>
        <g>
          <path d="M453,803.33l-72.15,17.84a10.49,10.49,0,0,1-1.94-3.78c-2-6-2.42-16.21-3-22.58-.06-.75-.12-1.44-.2-2.07a23,23,0,0,0-.4-2.56c-1.24-5,3.41-5.25,3.41-5.25,9.07,5.35,14.68-7.42,20.38-5.1,0,0,2.44,1,9.45,4.72s17.58,4.73,26.73,6.15c11.81,1.82,15.95,5.54,17.31,8.48A5.81,5.81,0,0,1,453,803.33Z" transform="translate(152.94 -195.4)"/>
          <path class="cls-7" d="M453,803.33l-72.15,17.84a10.49,10.49,0,0,1-1.94-3.78l73.69-18.21A5.81,5.81,0,0,1,453,803.33Z" transform="translate(152.94 -195.4)"/>
          <g>
            <path class="cls-6" d="M400.94,782.63s.51-3.47,3.62-3.17,4,5.08,4,5.08S407.9,789.26,400.94,782.63Z" transform="translate(152.94 -195.4)"/>
            <path class="cls-6" d="M403.57,797a1.24,1.24,0,0,1-1.49-.89,15.64,15.64,0,0,1,1.9-12.36,1.23,1.23,0,0,1,2,1.43,13.14,13.14,0,0,0-1.51,10.34A1.22,1.22,0,0,1,403.57,797Z" transform="translate(152.94 -195.4)"/>
            <path class="cls-6" d="M416.25,784a1.23,1.23,0,0,1-.86-.1c-1.84-1-6.34-.12-8.74.64a1.23,1.23,0,0,1-.74-2.34c.74-.23,7.28-2.22,10.62-.47a1.23,1.23,0,0,1,.51,1.65A1.19,1.19,0,0,1,416.25,784Z" transform="translate(152.94 -195.4)"/>
            <path class="cls-6" d="M405.27,781.8l-.83-.47c-.46-.25-1.08-.58-1.81-.93l-.44-.2a26.75,26.75,0,0,0-5.63-1.94,10.64,10.64,0,0,0-4.59-.07l-.09,0a5.2,5.2,0,0,0-3.34,2.51,3.76,3.76,0,0,0,0,3.86,2.25,2.25,0,0,0,.12.21,5.53,5.53,0,0,0,2.32,1.9,12,12,0,0,0,6.23.8,46.18,46.18,0,0,0,5.38-.87l.48-.11a17.73,17.73,0,0,0,2.25-.69l.26-.12-1.1-2.32,0-.07-.07,0,.46-.76Zm-6.84,2.87c-.48.07-1,.13-1.54.19-3.25.35-5.38-.51-6-1.52a2.12,2.12,0,0,1-.11-.21,1.17,1.17,0,0,1,.11-1.09,2.58,2.58,0,0,1,1.7-1.26h.06a5.83,5.83,0,0,1,1.75-.13,13.58,13.58,0,0,1,3.06.58,29.38,29.38,0,0,1,3.53,1.34h0c.88.4,1.68.8,2.3,1.14l-.85.23A36,36,0,0,1,398.43,784.67Z" transform="translate(152.94 -195.4)"/>
            <path class="cls-6" d="M407.24,784.09,405.57,782c2.09-1.71,3.63-5.23,3-7-.14-.42-.46-.91-1.66-1a1.5,1.5,0,0,0-1.37.51c-1,1.27-.59,4.62-.09,6.43l-2.56.71c-.17-.61-1.58-6,.57-8.78a4.59,4.59,0,0,1,7.63,1.25C412.17,777.32,409.92,781.91,407.24,784.09Z" transform="translate(152.94 -195.4)"/>
          </g>
          <path class="cls-7" d="M388.21,819.35l-2.14.53a16.32,16.32,0,0,0,1-12.51c-2.11-7-7.58-10.79-11.17-12.56-.06-.75-.12-1.44-.2-2.07,3.81,1.66,10.54,5.68,13.07,14.12A18,18,0,0,1,388.21,819.35Z" transform="translate(152.94 -195.4)"/>
          <path class="cls-6" d="M408.39,789.1a1.22,1.22,0,0,1-.87-2.27l4.23-2.23a1.23,1.23,0,0,1,1.66.51,1.24,1.24,0,0,1-.51,1.66L408.66,789A1,1,0,0,1,408.39,789.1Z" transform="translate(152.94 -195.4)"/>
          <path class="cls-6" d="M413.54,790.61a1.22,1.22,0,0,1-.86-2.27l4.23-2.24a1.23,1.23,0,0,1,1.14,2.17l-4.23,2.23A1,1,0,0,1,413.54,790.61Z" transform="translate(152.94 -195.4)"/>
          <path class="cls-6" d="M418.67,792a1.22,1.22,0,0,1-.86-2.27l4.23-2.23a1.22,1.22,0,1,1,1.14,2.16L419,791.91A.94.94,0,0,1,418.67,792Z" transform="translate(152.94 -195.4)"/>
          <path class="cls-6" d="M424.16,793.13a1.22,1.22,0,0,1-.86-2.27l4.23-2.24a1.23,1.23,0,0,1,1.14,2.17L424.44,793A1.62,1.62,0,0,1,424.16,793.13Z" transform="translate(152.94 -195.4)"/>
          <path class="cls-6" d="M430,793.8a1.23,1.23,0,0,1-.86-2.28l4.23-2.23a1.23,1.23,0,0,1,1.14,2.17l-4.23,2.23A1.36,1.36,0,0,1,430,793.8Z" transform="translate(152.94 -195.4)"/>
        </g>
        <path class="cls-4" d="M398.7,770.17l-28.15,3.07s-17.7-96.12-15.88-119.19l-26.3-134.24-3.78-19.33,38.08-3.35,2.17-1.22,1.29-.71,2.13-1.2,5.48-3.06c.13.74.27,1.48.4,2.21.33,1.73.65,3.47,1,5.19.16.9.33,1.79.49,2.68l.06.37c.16.82.31,1.64.46,2.46,9.78,53.55,17.42,102.73,20.42,138.51v.43l0,2.52Z" transform="translate(152.94 -195.4)"/>
        <path class="cls-5" d="M396.59,645.31a48.81,48.81,0,0,1-12.75,1.75h0a1.21,1.21,0,0,1-1.2-1.22,1.19,1.19,0,0,1,1.21-1.2h0c.22,0,7.5,0,12.73-1.85Z" transform="translate(152.94 -195.4)"/>
        <path class="cls-5" d="M375.6,763.25c-16.42-80.75-12.54-114.77-12.5-115.1a1,1,0,0,0,0-.39l-25.17-119a1.16,1.16,0,0,0-1.29-.92h0a1.17,1.17,0,0,0-1,1.4l25.12,118.81c-.3,3-3.3,37.7,12.55,115.66a1.18,1.18,0,0,0,1.25.94l.14,0A1.18,1.18,0,0,0,375.6,763.25Z" transform="translate(152.94 -195.4)"/>
      </g>
      <path class="cls-5" d="M377,502.78a1.65,1.65,0,0,1-.26-.08,23,23,0,0,1-5-2.44c-.42-.27-.84-.56-1.24-.85a28.27,28.27,0,0,1-4.16-3.77c-7.77-8.54-10.09-20.58-10.2-21.19a1.18,1.18,0,1,1,2.32-.43c0,.14,2.39,12.46,10.15,20.58a24.27,24.27,0,0,0,3.79,3.27l.62.41a20,20,0,0,0,3.83,1.94A3.8,3.8,0,0,1,377,502.78Z" transform="translate(152.94 -195.4)"/>
      <path class="cls-5" d="M336.88,520a1,1,0,0,1-.93,1h0a1,1,0,0,1-1-.9c-.17-3.55-.38-7.19-.61-10.83l-.12-1.92c-.76-11.87-1.73-23.53-2.47-31.77-.06-.66-.11-1.31-.17-1.93-.17-1.8-.31-3.41-.44-4.76l1.95-.32c.12,1.36.27,3,.44,4.8.05.62.11,1.27.17,1.93.73,8.17,1.69,19.72,2.46,31.53l.12,2C336.49,512.5,336.7,516.28,336.88,520Z" transform="translate(152.94 -195.4)"/>
      <path class="cls-5" d="M339.69,507.42a25.57,25.57,0,0,1-3.44,1.32c-.61.18-1.26.35-1.94.48a13,13,0,0,1-1.86.24,6.71,6.71,0,0,1-3.29-.52,4,4,0,0,1-2.24-3c-.71-3.66-2.2-18.79-3.2-29.49-.06-.66-.12-1.3-.18-1.93-.16-1.71-.3-3.27-.42-4.59l2-.24c.12,1.33.26,2.91.42,4.64q.09.93.18,1.92c1,10.68,2.49,25.79,3.18,29.34a2.11,2.11,0,0,0,1.18,1.66,7,7,0,0,0,4.15.05,19.7,19.7,0,0,0,1.94-.52,22.84,22.84,0,0,0,2.69-1.06,1,1,0,0,1,1.32.43A.94.94,0,0,1,339.69,507.42Z" transform="translate(152.94 -195.4)"/>
      <g>
        <polygon class="cls-13" points="328.6 561.51 318.34 578.03 336.87 593.97 349.3 576.14 328.6 561.51"/>
        <g>
          <g>
            <path class="cls-6" d="M187.39,808.37a1.13,1.13,0,0,1-.26-.76c.07-1.91-2.42-5.3-4-7a1.13,1.13,0,0,1,1.64-1.55c.49.52,4.75,5.16,4.62,8.62a1.11,1.11,0,0,1-1.16,1.08A1.09,1.09,0,0,1,187.39,808.37Z" transform="translate(152.94 -195.4)"/>
            <path d="M213.41,823.15l-52.11,0s-8.38-13.07-13-23c-.24-.49-.45-1-.66-1.45-1.61-3.66-2.56-6.74-2.18-8.31a7.13,7.13,0,0,1,.9-2c2.29-3.61,7.94-7.66,11.64-10.07h0l1.49-.95c1.21-.75,6.08-5.4,6.08-5.4,6-1,13.28,14.57,13.28,14.57s9.06-.86,8.93,5.88c0,2.36-5.7,9.42-5.7,9.42S197,805.17,202,808.07c7.1,4.1,9.82,8.29,10.83,11.21A8.29,8.29,0,0,1,213.41,823.15Z" transform="translate(152.94 -195.4)"/>
            <path class="cls-7" d="M157.24,792.92a16.58,16.58,0,0,1-8.9,7.22c-.24-.49-.45-1-.66-1.45a15.06,15.06,0,0,0,8.17-6.63A18.78,18.78,0,0,0,158,778.31h0l1.49-.95A20.43,20.43,0,0,1,157.24,792.92Z" transform="translate(152.94 -195.4)"/>
            <g>
              <path class="cls-6" d="M182.42,795.13s3.07-1,4.07,1.74-2.63,5.34-2.63,5.34S179.68,803.54,182.42,795.13Z" transform="translate(152.94 -195.4)"/>
              <path class="cls-6" d="M171.51,803a1.14,1.14,0,0,1,.16-1.59,14.38,14.38,0,0,1,11-3.34,1.13,1.13,0,0,1-.4,2.22,12.08,12.08,0,0,0-9.18,2.86A1.13,1.13,0,0,1,171.51,803Z" transform="translate(152.94 -195.4)"/>
              <path class="cls-6" d="M180,798.42a40.51,40.51,0,0,1-3.15-4.47c-1.9-3.08-2.35-6.2-1.16-8.17a3.48,3.48,0,0,1,3.34-1.69,4.83,4.83,0,0,1,3.41,1.77l.06.07c3,3.64,2.38,11.57,2.3,12.46l-1.65-.14,0,0-1.54,1.89A12.81,12.81,0,0,1,180,798.42Zm.62-10.94,0,0a2.37,2.37,0,0,0-1.72-.91,1.05,1.05,0,0,0-1.08.51c-.57,1-.44,3.06,1.15,5.62a34.48,34.48,0,0,0,3.48,4.83C182.58,794.93,182.47,789.69,180.65,787.48Z" transform="translate(152.94 -195.4)"/>
              <path class="cls-6" d="M183.71,800.94l1-2.21c2.25,1.06,5.78.93,7-.25.3-.29.58-.75.14-1.76-.31-.7-.68-.87-1-.93-1.45-.33-4.06,1.35-5.37,2.48l-1.6-1.84c.44-.38,4.39-3.73,7.51-3a4.22,4.22,0,0,1,2,6.82C191.29,802.33,186.58,802.29,183.71,800.94Z" transform="translate(152.94 -195.4)"/>
            </g>
            <path class="cls-6" d="M182.28,803.63a1.13,1.13,0,0,1,0-2.24l4.38-.45a1.13,1.13,0,0,1,.23,2.24l-4.38.45Z" transform="translate(152.94 -195.4)"/>
            <path class="cls-6" d="M187.4,805.36a1.13,1.13,0,0,1,0-2.24l4.38-.45a1.13,1.13,0,0,1,.23,2.24l-4.38.45Z" transform="translate(152.94 -195.4)"/>
            <path class="cls-6" d="M192.62,807a1.15,1.15,0,0,1-1-1,1.13,1.13,0,0,1,1-1.24l4.38-.45a1.13,1.13,0,0,1,.23,2.24l-4.38.45Z" transform="translate(152.94 -195.4)"/>
          </g>
          <path class="cls-7" d="M213.41,823.15l-52.11,0s-17.23-26.86-15.8-32.73a7.13,7.13,0,0,1,.9-2c4.6,8.72,14.72,27.55,18.11,31l48.36-.13A8.29,8.29,0,0,1,213.41,823.15Z" transform="translate(152.94 -195.4)"/>
        </g>
        <path class="cls-4" d="M324.21,519.16,285.36,640.05l-.08.25-1.27,2L194.57,781.42l-26.93-17.26s28.59-62.39,40.54-86.77,30.13-43.23,30.13-43.23c12-33.25,33.27-135.06,33.27-135.06Z" transform="translate(152.94 -195.4)"/>
        <path class="cls-5" d="M285.36,640.05l-.08.25-1.27,2A52,52,0,0,1,269.58,637a1.22,1.22,0,0,1-.45-1.66,1.2,1.2,0,0,1,1.65-.44A50.43,50.43,0,0,0,285.36,640.05Z" transform="translate(152.94 -195.4)"/>
        <path class="cls-5" d="M175.08,766.76a1.23,1.23,0,0,1-.55-.13A1.21,1.21,0,0,1,174,765c.25-.5,25.15-49.68,38.44-81.53,13.19-31.59,30-44.22,32.53-46,10.25-22.54,29.29-117.66,29.48-118.62a1.21,1.21,0,1,1,2.37.47c-.79,4-19.46,97.23-29.79,119.47a1.25,1.25,0,0,1-.44.5c-.18.12-18.24,12.34-31.91,45.09-13.33,31.94-38.27,81.2-38.52,81.69A1.21,1.21,0,0,1,175.08,766.76Z" transform="translate(152.94 -195.4)"/>
        <path class="cls-7" d="M275.7,534.6a14.87,14.87,0,0,0,7.18-.17c18.29-4.66,24.11-46.9,24.35-48.69a1.36,1.36,0,0,0-2.7-.36c-.06.42-5.8,42.2-22.32,46.41-4.29,1.09-8.12.13-10.79-2.72C268,525.36,267,519,269,513a1.37,1.37,0,0,0-2.6-.84c-2.28,7-1.08,14.36,3.06,18.79A12.37,12.37,0,0,0,275.7,534.6Z" transform="translate(152.94 -195.4)"/>
      </g>
      <path class="cls-5" d="M274.69,504.18a20.8,20.8,0,0,1-5,3.61A2.66,2.66,0,0,1,270,505a14.12,14.12,0,0,0,2.89-2.48c7.7-8.55,5.83-25.18,5.81-25.35a1.21,1.21,0,0,1,2.41-.28C281.19,477.66,283.11,494.83,274.69,504.18Z" transform="translate(152.94 -195.4)"/>
    </g>
    <g>
      <g>
        <path class="cls-7" d="M390,328.56l-.87-.81a21,21,0,0,1-5.85-9.55l-26.17-8.81a39.38,39.38,0,0,1-7.17,1.67l-1.29.17a50.55,50.55,0,0,1-14.27-.45C322,308.69,311,318.88,303,338.69l-2.3,5.59c-.16.41-.33.82-.5,1.23-3.08,7.5-6,14.68-8.79,21.71-.24.61-.48,1.21-.71,1.81a309.51,309.51,0,0,0-11,32.79c-.6,2.28-1.17,4.56-1.69,6.86-2.38,10.43-11.21,65-12.32,79.86,14.18,13,71.58,13.64,111.41,2.41-1.91-23.27.24-49.72,1.58-56.94.43-2.38.89-4.69,1.36-6.94s.91-4.32,1.39-6.39q.81-3.54,1.66-6.86c.61-2.38,1.23-4.66,1.86-6.86s1.34-4.61,2-6.78c9.31-29.52,19.56-42.17,20.53-49.68C409,338.54,397.9,335.69,390,328.56Z" transform="translate(152.94 -195.4)"/>
        <path class="cls-6" d="M365.18,348.17l-.11,0c-14.91-5.13-13.06-36.37-13-37.7a.93.93,0,0,1,1.86.12c0,.32-1.85,31.15,11.72,35.83a9.22,9.22,0,0,0,8.29-.72c8.15-5.1,10.37-22.62,10.39-22.8a.93.93,0,0,1,1.85.22c-.09.76-2.35,18.59-11.26,24.16A11,11,0,0,1,365.18,348.17Z" transform="translate(152.94 -195.4)"/>
        <path class="cls-14" d="M369.33,354.5a34.65,34.65,0,0,1-12.92-8.33,63.6,63.6,0,0,1-11.3-15.36.7.7,0,0,1,.26-.88.57.57,0,0,1,.82.24,62.35,62.35,0,0,0,11.08,15.05c9.29,9,19.08,11.49,29.08,7.3a.57.57,0,0,1,.77.36.69.69,0,0,1-.38.84,24.08,24.08,0,0,1-17.21.85Z" transform="translate(152.94 -195.4)"/>
        <path class="cls-14" d="M370.81,330.16c-6.17-2.07-11.55-9.79-11.85-10.22a.67.67,0,0,1,.15-.9.57.57,0,0,1,.84.1c.09.13,9.09,13,16.43,9.69a.55.55,0,0,1,.77.33.69.69,0,0,1-.35.85A7.92,7.92,0,0,1,370.81,330.16Z" transform="translate(152.94 -195.4)"/>
        <path class="cls-14" d="M343.83,462.9a47.83,47.83,0,0,1-7.58-3.32,68.29,68.29,0,0,1-17.76-14.36,103.06,103.06,0,0,1-15-21.62.77.77,0,0,1,.3-1,.64.64,0,0,1,.9.27,100.89,100.89,0,0,0,14.79,21.33c8.68,9.54,22.77,20.64,40.57,19.37a.65.65,0,0,1,.68.66.74.74,0,0,1-.66.76A41.31,41.31,0,0,1,343.83,462.9Z" transform="translate(152.94 -195.4)"/>
        <path class="cls-14" d="M329.29,368.91a1.1,1.1,0,0,1-.76-.33,1.06,1.06,0,0,1,0-1.5l5.69-5.42a1.06,1.06,0,1,1,1.46,1.53l-5.7,5.42A1,1,0,0,1,329.29,368.91Z" transform="translate(152.94 -195.4)"/>
        <path class="cls-14" d="M353.51,373.44a1.06,1.06,0,0,1-1-.65l-3.07-7.24a1.06,1.06,0,0,1,.56-1.39,1.07,1.07,0,0,1,1.39.56l3.07,7.24a1.07,1.07,0,0,1-.56,1.39A1.06,1.06,0,0,1,353.51,373.44Z" transform="translate(152.94 -195.4)"/>
        <path class="cls-14" d="M375.7,373.7l-.2,0-7.72-1.48a1.05,1.05,0,1,1,.4-2.07l7.72,1.47a1.06,1.06,0,0,1-.2,2.1Z" transform="translate(152.94 -195.4)"/>
        <path class="cls-14" d="M344.09,410a1.06,1.06,0,0,1-.61-1.92l6.42-4.55a1.06,1.06,0,0,1,1.22,1.73l-6.42,4.54A1,1,0,0,1,344.09,410Z" transform="translate(152.94 -195.4)"/>
        <path class="cls-14" d="M396.46,344.65l-.21,0-7.71-1.57A1.06,1.06,0,0,1,389,341l7.71,1.57a1.06,1.06,0,0,1,.83,1.24A1.08,1.08,0,0,1,396.46,344.65Z" transform="translate(152.94 -195.4)"/>
        <path class="cls-14" d="M377.21,396.11a1.05,1.05,0,0,1-1.06-1.05l0-7.87a1.07,1.07,0,0,1,1.06-1.06h0a1.06,1.06,0,0,1,1.06,1.06l0,7.86a1,1,0,0,1-1.05,1.06Z" transform="translate(152.94 -195.4)"/>
        <path class="cls-14" d="M369.78,423.29a1,1,0,0,1-.8-.37L363.84,417a1.06,1.06,0,1,1,1.61-1.38l5.13,6a1.06,1.06,0,0,1-.11,1.49A1,1,0,0,1,369.78,423.29Z" transform="translate(152.94 -195.4)"/>
        <path class="cls-14" d="M282.9,457.41a1,1,0,0,1-.89-.49,1.06,1.06,0,0,1,.33-1.46l6.67-4.17a1.06,1.06,0,0,1,1.46.34,1,1,0,0,1-.34,1.45l-6.67,4.17A1,1,0,0,1,282.9,457.41Z" transform="translate(152.94 -195.4)"/>
        <path class="cls-14" d="M365.07,452.35a1,1,0,0,1-.8-.37l-5.14-6a1.06,1.06,0,1,1,1.61-1.38l5.13,6a1.06,1.06,0,0,1-.11,1.49A1,1,0,0,1,365.07,452.35Z" transform="translate(152.94 -195.4)"/>
        <path class="cls-14" d="M296.89,484.85a1,1,0,0,1-.8-.37l-5.13-6a1.06,1.06,0,0,1,1.6-1.38l5.14,6a1.05,1.05,0,0,1-.12,1.49A1,1,0,0,1,296.89,484.85Z" transform="translate(152.94 -195.4)"/>
        <path class="cls-14" d="M333.68,429.5a1.06,1.06,0,0,1-.7-1.85l5.88-5.22a1.06,1.06,0,1,1,1.4,1.58l-5.88,5.22A1,1,0,0,1,333.68,429.5Z" transform="translate(152.94 -195.4)"/>
        <path class="cls-14" d="M337.72,450a1.07,1.07,0,0,1-.64-.21l-6.29-4.73a1.06,1.06,0,0,1,1.28-1.69l6.28,4.73a1.05,1.05,0,0,1,.21,1.48A1.07,1.07,0,0,1,337.72,450Z" transform="translate(152.94 -195.4)"/>
        <path class="cls-14" d="M323,478.89a1.07,1.07,0,0,1-.79-.35,1,1,0,0,1,.09-1.49l5.87-5.23a1.06,1.06,0,1,1,1.41,1.58l-5.88,5.23A1,1,0,0,1,323,478.89Z" transform="translate(152.94 -195.4)"/>
        <path class="cls-14" d="M364.27,485.51a1.06,1.06,0,0,1-.7-1.85l5.88-5.22a1.06,1.06,0,0,1,1.4,1.58L365,485.24A1.07,1.07,0,0,1,364.27,485.51Z" transform="translate(152.94 -195.4)"/>
        <path class="cls-14" d="M347.72,482.58a1.1,1.1,0,0,1-.9-.49l-4.23-6.63a1.06,1.06,0,0,1,1.79-1.14l4.23,6.63a1.07,1.07,0,0,1-.89,1.63Z" transform="translate(152.94 -195.4)"/>
        <path class="cls-14" d="M313.8,384.6a1.06,1.06,0,0,1-1-.88l-1.34-7.45a1.06,1.06,0,0,1,2.08-.37l1.34,7.45a1.05,1.05,0,0,1-.85,1.23Z" transform="translate(152.94 -195.4)"/>
        <path class="cls-14" d="M316.07,412.57a1.06,1.06,0,0,1-.7-1.85l5.9-5.21a1.06,1.06,0,0,1,1.4,1.59l-5.9,5.21A1,1,0,0,1,316.07,412.57Z" transform="translate(152.94 -195.4)"/>
        <path class="cls-14" d="M310.15,456a1,1,0,0,1-1-.69L306.38,448a1.06,1.06,0,0,1,2-.75l2.78,7.36a1,1,0,0,1-.61,1.36A1,1,0,0,1,310.15,456Z" transform="translate(152.94 -195.4)"/>
        <path class="cls-14" d="M336,394.43a1,1,0,0,1-1-.66l-2.94-7.3a1.06,1.06,0,0,1,2-.79L337,393a1,1,0,0,1-1,1.45Z" transform="translate(152.94 -195.4)"/>
        <path class="cls-14" d="M302.32,389.14h0l-7.86-.28a1.06,1.06,0,0,1-1-1.09,1.07,1.07,0,0,1,1.09-1l7.86.28a1.06,1.06,0,0,1,0,2.11Z" transform="translate(152.94 -195.4)"/>
      </g>
      <g>
        <g>
          <path class="cls-13" d="M385.61,313.18l-2.28,6.75a22.28,22.28,0,0,1-2.95.88c-14.11,3.09-23.83-9.89-23.83-9.89l7.89-23.43,18.64,22.62Z" transform="translate(152.94 -195.4)"/>
          <path class="cls-4" d="M385.61,313.18l-2.28,6.75a22.28,22.28,0,0,1-2.95.88c-8.66-7.32-12.4-20.25-12.4-20.25l15.1,9.55Z" transform="translate(152.94 -195.4)"/>
        </g>
        <g>
          <path class="cls-4" d="M365.3,262.61s-7.9,0-8.58,4.55a4.34,4.34,0,0,0,3.06,5.19s-9.55,3.6-7.44,7.83,5.86,3.54,5.86,3.54-7,7.85-2.39,11.74,14.69-2.9,14.69-2.9S378.68,265.93,365.3,262.61Z" transform="translate(152.94 -195.4)"/>
          <path class="cls-4" d="M407.88,258.29s12,7.71,3.56,16.78C411.44,275.07,406,262.63,407.88,258.29Z" transform="translate(152.94 -195.4)"/>
          <path class="cls-15" d="M404.14,286.07s5.36-3.24,6,2S406,302,400.69,298.51Z" transform="translate(152.94 -195.4)"/>
          <path class="cls-13" d="M402.88,303.35s-4.69,14-19.21,9.06-20.45-19.55-20.79-20.24c0,0,0,0,0,0l.83-3L368,273.64l2.3-8.29s3.1-15.29,17.94-13.27c10.84,1.47,19.82,6.38,22.85,13.31a13.23,13.23,0,0,1,.71,8.44l-4.47,14.78-1.1,3.62Z" transform="translate(152.94 -195.4)"/>
          <path class="cls-15" d="M388.41,301.53a7.7,7.7,0,0,1-2.93-1.62.57.57,0,0,1,0-.82.58.58,0,0,1,.82,0h0a6.19,6.19,0,0,0,5,1.46.59.59,0,0,1,.69.46.58.58,0,0,1-.46.68A6.51,6.51,0,0,1,388.41,301.53Z" transform="translate(152.94 -195.4)"/>
          <path d="M397.31,287.26a15.9,15.9,0,0,1-2.74-.27.52.52,0,1,1,.18-1,12.77,12.77,0,0,0,3.34.21L395.44,282a.54.54,0,0,1-.06-.43l.93-3.08a.51.51,0,0,1,.64-.34.51.51,0,0,1,.35.64l-.86,2.86,2.95,4.67a.51.51,0,0,1,0,.45.49.49,0,0,1-.32.32A6.32,6.32,0,0,1,397.31,287.26Z" transform="translate(152.94 -195.4)"/>
          <path class="cls-6" d="M385.2,288s8.24,4.94,12.78,6.65c0,0-3.33,5.86-9.4,3.38C383.38,295.94,385.2,288,385.2,288Z" transform="translate(152.94 -195.4)"/>
          <path class="cls-4" d="M393.15,271.33a1.77,1.77,0,0,0,1.06-2.62,4.23,4.23,0,0,0-3.42-2c-3.94-.36-9.75,3.1-7.64,5.16C384.69,273.4,390.27,272.12,393.15,271.33Z" transform="translate(152.94 -195.4)"/>
          <path class="cls-4" d="M402.17,273.72a1.77,1.77,0,0,1,.56-2.77,4.24,4.24,0,0,1,3.94.25c3.49,1.89,5.8,7.89,2.9,8.43C407.46,280,404.13,276,402.17,273.72Z" transform="translate(152.94 -195.4)"/>
          <path class="cls-4" d="M365.08,265a12.6,12.6,0,0,0,.14,6.52c3.82,2.28,4.94,5.16,5,7.53l3.47,1.7a37.83,37.83,0,0,0,2.74-10.67c.21-3.77,3.81-3.76,5.58-6.53a4.07,4.07,0,0,0,.89-2.65s6.52-2.24,12.06,1.75,11,6.56,15.07,3.76a3.29,3.29,0,0,0,1.06-1c-3-6.93-12-11.84-22.85-13.31-14.84-2-20.28,3.67-20.28,3.67C365.73,258.83,365.78,262,365.08,265Z" transform="translate(152.94 -195.4)"/>
          <g>
            <path class="cls-7" d="M365.9,254.69s25.65-1.33,41.92,3.54l1.25.4a30.72,30.72,0,0,1,4.61,1.9s-.3-9.26-10.49-15.38a29.86,29.86,0,0,0-3.88-2,37.86,37.86,0,0,0-6.43-2l-.24-.06c-.63-.14-1.25-.26-1.85-.35a29.75,29.75,0,0,0-5.24-.42c-.43,0-.84,0-1.25,0a22,22,0,0,0-7.93,1.91,19.42,19.42,0,0,0-2.08,1.1A18.45,18.45,0,0,0,365.9,254.69Z" transform="translate(152.94 -195.4)"/>
            <path class="cls-12" d="M399.31,243.19a22.16,22.16,0,0,1,8.51,15c.05.43.08.86.1,1.3l1.21-.06q0-.42-.06-.84a22.79,22.79,0,0,0-5.88-13.48A29.86,29.86,0,0,0,399.31,243.19Z" transform="translate(152.94 -195.4)"/>
            <path class="cls-12" d="M390.79,240.78c4.79,4.35,5.33,11.73,5.34,11.81l1.21-.08c0-.34-.5-6.69-4.46-11.32l-.24-.06C392,241,391.39,240.87,390.79,240.78Z" transform="translate(152.94 -195.4)"/>
            <path class="cls-12" d="M384.3,240.4c-.57,3-1.15,9.37,2.69,14l.93-.77c-3.61-4.37-2.89-10.63-2.37-13.29C385.12,240.36,384.71,240.38,384.3,240.4Z" transform="translate(152.94 -195.4)"/>
            <path class="cls-12" d="M372,254.46l1.19-.24c-.9-4.31,1.27-8.88,3.19-11.91a19.42,19.42,0,0,0-2.08,1.1C372.61,246.49,371.17,250.52,372,254.46Z" transform="translate(152.94 -195.4)"/>
            <path class="cls-12" d="M413.83,265.43a62.07,62.07,0,0,0-48.3-2.85,7.65,7.65,0,0,1,.46-8.16s26.1-11.26,48.14,4.78A5.88,5.88,0,0,1,413.83,265.43Z" transform="translate(152.94 -195.4)"/>
          </g>
          <g class="cls-16">
            <path class="cls-15" d="M387.78,284c-.34,1-2.72,1.14-5.3.27s-4.4-2.4-4.06-3.42,2.72-1.13,5.3-.26S388.12,283,387.78,284Z" transform="translate(152.94 -195.4)"/>
          </g>
          <path class="cls-15" d="M406.24,292.23a10.29,10.29,0,0,1-1.14-.32c-2.59-.87-4.4-2.4-4.06-3.42s2.71-1.14,5.3-.27c.35.12.68.25,1,.39Z" transform="translate(152.94 -195.4)"/>
          <g>
            <path class="cls-4" d="M391,277.1c-.47,1.4-1.49,2.32-2.27,2s-1-1.61-.56-3,1.48-2.32,2.26-2.06S391.44,275.7,391,277.1Z" transform="translate(152.94 -195.4)"/>
            <path class="cls-4" d="M404.79,281.75c-.47,1.4-1.49,2.32-2.27,2.06s-1-1.61-.56-3,1.48-2.32,2.26-2.05S405.26,280.36,404.79,281.75Z" transform="translate(152.94 -195.4)"/>
          </g>
          <path class="cls-4" d="M369.34,288c-.12.13-3.4,3.78-6.46,4.14v0l.83-3A10.6,10.6,0,0,0,369.34,288Z" transform="translate(152.94 -195.4)"/>
          <path class="cls-13" d="M370.05,277.46s-3.06-9.38-9.14-4.86c-5,3.72-2.9,18.53,5.24,16.44Z" transform="translate(152.94 -195.4)"/>
          <path class="cls-6" d="M361.29,284.75a1.36,1.36,0,1,0,1.72-.85A1.36,1.36,0,0,0,361.29,284.75Z" transform="translate(152.94 -195.4)"/>
          <path class="cls-4" d="M366.15,286.52l.06,0a.6.6,0,0,0,.72-.46,11.32,11.32,0,0,0-3.37-10.8.61.61,0,0,0-.86.07.61.61,0,0,0,.07.85h0a10.12,10.12,0,0,1,3,9.62A.6.6,0,0,0,366.15,286.52Z" transform="translate(152.94 -195.4)"/>
          <path class="cls-4" d="M362,281.23a.55.55,0,0,0,.4,0h0c.64-.24,2.49-.73,3.39-.14a.61.61,0,0,0,.66-1c-1.58-1-4.18-.09-4.47,0a.6.6,0,0,0-.36.78A.59.59,0,0,0,362,281.23Z" transform="translate(152.94 -195.4)"/>
        </g>
      </g>
      <g>
        <path class="cls-13" d="M329.65,416.64l-1.44.13-1.32.11-2.6.17c-1.73.1-3.45.18-5.17.24-3.45.12-6.89.17-10.36.12a152.53,152.53,0,0,1-21.23-1.6,89.57,89.57,0,0,1-11.18-2.38,57.08,57.08,0,0,1-11.93-4.79,38.89,38.89,0,0,1-6.26-4.27,31.7,31.7,0,0,1-5.9-6.51,28.63,28.63,0,0,1-2.35-4.21c-.34-.73-.65-1.5-.92-2.27-.15-.38-.27-.78-.39-1.16l-.06-.19-.18-.7c-.11-.46-.21-1-.27-1.39a16.93,16.93,0,0,1-.19-2.45c0-.36,0-.76,0-1.09s0-.64.09-.95l.06-.47.07-.4c0-.27.09-.54.15-.8.11-.51.22-.91.35-1.37s.24-.76.38-1.13a23.28,23.28,0,0,1,1.47-3.2c.47-.83.91-1.53,1.32-2.13s.82-1.17,1.2-1.68a61.79,61.79,0,0,1,4.29-4.95c1.36-1.42,2.69-2.71,4-4,2.64-2.47,5.25-4.75,7.86-7,5.22-4.41,10.46-8.53,15.72-12.57s10.57-7.95,15.89-11.82q4-2.91,8-5.77l4-2.86,4.1-2.86a16.06,16.06,0,1,1,18.4,26.32l-.51.34-.2.13-3.95,2.52-4,2.6q-4,2.6-8,5.24Q310.77,363,303,368.43c-5.13,3.64-10.19,7.34-15,11.1-2.4,1.88-4.73,3.77-6.88,5.64l-.11.1a33.69,33.69,0,0,0,3.38,1.28,61.71,61.71,0,0,0,7.72,1.94,127.15,127.15,0,0,0,17.36,1.92c3,.14,6,.19,9,.18,1.51,0,3,0,4.52-.07l2.24-.08,2.08-.1.44,0a13.2,13.2,0,0,1,1.81,26.33Z" transform="translate(152.94 -195.4)"/>
        <g>
          <path class="cls-15" d="M268.1,384.63a.73.73,0,0,1,.32-1.36c4.92-.26,11.76,1.26,12,1.32a.73.73,0,0,1-.32,1.43c-.06,0-6.93-1.55-11.65-1.3A.66.66,0,0,1,268.1,384.63Z" transform="translate(152.94 -195.4)"/>
          <path class="cls-15" d="M279.3,385.58a.68.68,0,0,1-.29-.29c-1.58-2.94-6.16-5-6.2-5a.73.73,0,1,1,.58-1.33c.21.09,5.09,2.27,6.9,5.65a.72.72,0,0,1-1,1Z" transform="translate(152.94 -195.4)"/>
        </g>
        <g>
          <path class="cls-13" d="M327.4,392.35s-.63-8.79,5.13-8.81a44.89,44.89,0,0,1,10.33,1Z" transform="translate(152.94 -195.4)"/>
          <path class="cls-4" d="M331.2,378.08l6.7,39.59a1.09,1.09,0,0,0,1.2,1l20.08-3.4a1.11,1.11,0,0,0,.83-1.32l-6.7-39.58a1.1,1.1,0,0,0-1.21-1L332,376.76A1.11,1.11,0,0,0,331.2,378.08Z" transform="translate(152.94 -195.4)"/>
          <path class="cls-13" d="M353.82,406.93c-6.8,1.31-13.44,9.15-21.32,9.14-4.6,0-8.55-4.46-9.53-12.61a14.24,14.24,0,0,1,7.7-14.21c5-2.6,12.56-6.11,19.33-7.54,10.59-2.24,10.08.75,10,3.35,0,1.1-1.16,1.62-2.86,2.56,0,0,1.84-.42,1.82,2.14a4.58,4.58,0,0,1-1.67,3.68s1.67,1.41,1.37,2.88a7.16,7.16,0,0,1-1.2,2.63A3.24,3.24,0,0,1,360,401.5C360.34,402.7,360,405.74,353.82,406.93Z" transform="translate(152.94 -195.4)"/>
        </g>
        <g>
          <path class="cls-4" d="M320.83,391.14s-2.13,14.58,2.05,25.85c1.8.93,4.53.69,6.49-.08a52.86,52.86,0,0,1-2-26.57C325.12,389.69,321.73,389.83,320.83,391.14Z" transform="translate(152.94 -195.4)"/>
          <path class="cls-4" d="M331.14,395.47c.21,3.45-3.28,6.47-7.81,6.75s-8.37-2.28-8.58-5.73,3.28-6.46,7.81-6.74S330.93,392,331.14,395.47Z" transform="translate(152.94 -195.4)"/>
          <path class="cls-4" d="M331.15,396c.27,4.86-3.29,7.38-7.82,7.66s-8.6-2.21-8.58-7.16c0-3.45,3.28-5,7.8-5.31S331,392.55,331.15,396Z" transform="translate(152.94 -195.4)"/>
          <path class="cls-6" d="M323.22,400.47c-3.25.2-6-1.64-6.18-4.12s2.37-4.65,5.62-4.85,6,1.64,6.18,4.12S326.48,400.27,323.22,400.47Z" transform="translate(152.94 -195.4)"/>
        </g>
        <path class="cls-7" d="M305.23,373.43l-1.62-2-.64-.78-10.74-13.11-.66-.81L279.8,342.39c2.45-2.36,5.17-4.61,11.62-9.24l1.65-1.18c3.62-2.58,8.3-5.83,14.49-10.1a39.2,39.2,0,0,1,11.1-5.71l1-.28a28.47,28.47,0,0,1,5.83-.79,18.72,18.72,0,0,1,18.69,12.73,18.14,18.14,0,0,1-1.05,14C336.39,355.61,305.23,373.43,305.23,373.43Z" transform="translate(152.94 -195.4)"/>
        <path class="cls-14" d="M294,339.75a1,1,0,0,1-.79-.36,1.06,1.06,0,0,1,.09-1.49l5.88-5.22a1,1,0,0,1,1.49.08,1.07,1.07,0,0,1-.08,1.5l-5.88,5.22A1.07,1.07,0,0,1,294,339.75Z" transform="translate(152.94 -195.4)"/>
        <path class="cls-14" d="M333.52,328.13a1.06,1.06,0,0,1-.61-.2l-6.41-4.56a1.06,1.06,0,0,1,1.23-1.73l6.4,4.57a1,1,0,0,1,.25,1.47A1.06,1.06,0,0,1,333.52,328.13Z" transform="translate(152.94 -195.4)"/>
        <path class="cls-14" d="M327.15,351.73a1.06,1.06,0,0,1-1.06-1.05l-.07-7.87a1.06,1.06,0,0,1,1.05-1.06h0a1.06,1.06,0,0,1,1.06,1.05l.06,7.86a1.05,1.05,0,0,1-1,1.07Z" transform="translate(152.94 -195.4)"/>
        <path class="cls-14" d="M310.92,338.09a1.06,1.06,0,0,1-.26-2.08l7.63-1.91a1.06,1.06,0,1,1,.52,2l-7.63,1.91A1.15,1.15,0,0,1,310.92,338.09Z" transform="translate(152.94 -195.4)"/>
        <path class="cls-14" d="M310.52,359.39a1.07,1.07,0,0,1-.95-.59l-3.51-7a1.06,1.06,0,0,1,1.9-.95l3.51,7a1.06,1.06,0,0,1-.48,1.42A1.12,1.12,0,0,1,310.52,359.39Z" transform="translate(152.94 -195.4)"/>
        <g>
          <path class="cls-14" d="M304.87,374.07a.85.85,0,0,1-.26-.24.73.73,0,0,1,.22-1l28.24-18.36a.73.73,0,1,1,.79,1.22L305.62,374A.75.75,0,0,1,304.87,374.07Z" transform="translate(152.94 -195.4)"/>
          <path class="cls-14" d="M326.31,360.13a.75.75,0,0,1-.34-.86.73.73,0,0,1,.91-.47l4.75,1.49a.73.73,0,0,1-.43,1.39l-4.75-1.49Z" transform="translate(152.94 -195.4)"/>
        </g>
      </g>
      <g>
        <path d="M247.9,412.23l71.45,24.43s-13.25,62.48-43.94,71.13C249.84,515,220,495,228,464S247.9,412.23,247.9,412.23Z" transform="translate(152.94 -195.4)"/>
        <path class="cls-7" d="M266.44,422.54a3.29,3.29,0,1,1-3.29-3.29A3.29,3.29,0,0,1,266.44,422.54Z" transform="translate(152.94 -195.4)"/>
        <path class="cls-7" d="M299.32,435.33a3.29,3.29,0,1,1-3.29-3.28A3.29,3.29,0,0,1,299.32,435.33Z" transform="translate(152.94 -195.4)"/>
        <path class="cls-7" d="M276.85,467.59c-.31-3-2.53-5.32-5-7.14-2.83-2.08-6-3.58-7-5a1.27,1.27,0,0,1-.26-1.24c.36-.93,1.45-1.41,3.94-.57h0l.5.18a18.46,18.46,0,0,1,6.73,4.68l.48.51,1.32-1.4,4.28-4.53a20.46,20.46,0,0,0-4.42-3.83,29,29,0,0,0-3-1.73l1-2.65.66-1.75-5.8-2.21-1.7,4.49c-7.11-1.62-12,1-13.74,5.66a7.88,7.88,0,0,0,1.56,8.58,30.45,30.45,0,0,0,6.69,5.13c2.18,1.41,3.79,2.57,3.33,3.78-.38,1-1.58,1.19-4.34.14a18,18,0,0,1-3.41-1.74,20.79,20.79,0,0,1-5.1-4.51l-5.82,5.9a17.66,17.66,0,0,0,2.66,2.69,30.27,30.27,0,0,0,6.83,4.21l-1,2.5-.71,1.86,5.8,2.2,1.74-4.56c6.8,1.31,11.48-1.34,13.17-5.79A8.41,8.41,0,0,0,276.85,467.59Z" transform="translate(152.94 -195.4)"/>
        <g>
          <path class="cls-4" d="M265,408.91c-2.22,8-3.42,13.14-3.44,13.25a1.67,1.67,0,1,0,3.26.76c.05-.21,1.17-5,3.24-12.48C267,409.91,266,409.34,265,408.91Z" transform="translate(152.94 -195.4)"/>
          <path class="cls-4" d="M307.76,322.39a40,40,0,0,1,9.36-7.6c5.39-3,10.61-3.63,15.95-1.86a10,10,0,0,1,6.52,6.55c5.09,14.14-7.37,44.82-20.46,70.95q1.94,0,3.87-.15c13-26.33,25.12-57,19.74-71.93a13.34,13.34,0,0,0-8.61-8.59c-6.2-2.07-12.47-1.36-18.65,2.11q-8.67,4.86-17.1,16.84c2.9-2,5.78-4,8.54-6.19A.79.79,0,0,1,307.76,322.39Z" transform="translate(152.94 -195.4)"/>
          <path class="cls-4" d="M304.73,417.32c-6,10.55-10,17-10.15,17.21a1.67,1.67,0,1,0,2.84,1.77c.64-1,5.13-7.88,11.34-18.89C307.45,417.45,306,417.31,304.73,417.32Z" transform="translate(152.94 -195.4)"/>
        </g>
      </g>
    </g>
    <g>
      <g>
        <path class="cls-13" d="M388.26,384.08l.52,1.14.49,1.07,1,2.11c.68,1.4,1.35,2.79,2,4.18,1.39,2.76,2.8,5.51,4.27,8.23s3,5.44,4.55,8.14,3.2,5.39,4.9,8.07,3.49,5.34,5.38,8,3.91,5.33,6.2,8c1.14,1.33,2.35,2.67,3.68,4a54.74,54.74,0,0,0,4.5,4.12c.44.35.88.7,1.36,1.05l.73.53.19.13.27.19.6.39a23.11,23.11,0,0,0,2.83,1.51,20.24,20.24,0,0,0,3.69,1.19,17.72,17.72,0,0,0,4.44.42,18.29,18.29,0,0,0,8.36-2.28,20.56,20.56,0,0,0,2.88-1.92,21.42,21.42,0,0,0,2.11-1.92c.61-.63,1.12-1.23,1.6-1.82a32.31,32.31,0,0,0,2.27-3.3,44.36,44.36,0,0,0,2.84-5.71c.75-1.78,1.35-3.49,1.89-5.16s1-3.28,1.45-4.88c.86-3.21,1.58-6.32,2.24-9.4s1.2-6.13,1.74-9.14l.78-4.51.72-4.46,1.38-8.82c.45-2.91.93-5.78,1.4-8.57.23-1.39.49-2.77.74-4.09s.53-2.61.81-3.77l.07-.3a11,11,0,0,0-20.92-6.42c-1.26,3.34-2.18,6.4-3,9.43s-1.62,6-2.38,8.93l-4.3,17.27c-.71,2.82-1.45,5.6-2.22,8.31s-1.55,5.38-2.4,7.89l-.32.9-.2-.27L437,412l-.5-.67c-.6-.84-1.21-1.69-1.81-2.57-1.53-2.22-3-4.54-4.5-6.91s-2.94-4.79-4.37-7.25-2.86-4.93-4.25-7.44-2.79-5-4.14-7.55c-.69-1.27-1.37-2.53-2-3.8l-2-3.7-.13-.24a13.92,13.92,0,0,0-25,12.24Z" transform="translate(152.94 -195.4)"/>
        <g>
          <path class="cls-15" d="M432.54,425.14a.67.67,0,0,0,.58.75h0a.66.66,0,0,0,.72-.57,58.54,58.54,0,0,1,3.52-12.75L437,412l-.5-.67c-.21.54-.46,1.18-.73,1.89-.2.53-.41,1.09-.61,1.7A53.12,53.12,0,0,0,432.54,425.14Z" transform="translate(152.94 -195.4)"/>
          <path class="cls-15" d="M431.23,417.14a.61.61,0,0,0,.45-.13,18.59,18.59,0,0,1,4.69-2.61.67.67,0,0,0-.28-1.31c-1.79.37-4.86,2.59-5.2,2.85a.66.66,0,0,0-.14.93A.64.64,0,0,0,431.23,417.14Z" transform="translate(152.94 -195.4)"/>
        </g>
        <g>
          <path class="cls-13" d="M453.67,360.71s4.52,10.89,13.33,11c7.12.05,11.95-7.91,13.55-11,.38-.73.57-1.18.57-1.18a12.12,12.12,0,0,0,1.26-.26c1.75-.43,4.79-1.53,5.51-4,1-3.49-5.82-4.1-5.82-4.1s2.57-3.67,1.26-5.58-5.75-1.3-5.75-1.3,4-4.15,1.78-6.44c-3.3-3.44-7.12,2.09-7.45,2.43.22-.43,11.26-17.59,7.67-17.94-3.14-.31-13.59,13.53-16,17.5-.38.63-.59,1-.59,1s-.22-.1-.6-.24c-1.82-.69-7.3-2.37-9.77.92C449.66,345.51,453.67,360.71,453.67,360.71Z" transform="translate(152.94 -195.4)"/>
          <path class="cls-15" d="M474.76,353.94a7.17,7.17,0,0,0-2.35,3.86,2.12,2.12,0,0,0,.73,2,4,4,0,0,0,1.68.71,21.85,21.85,0,0,0,5.73.23c.38-.73.57-1.18.57-1.18a12.56,12.56,0,0,0,1.27-.26.82.82,0,0,0-.38-.06c-2.52.29-6.92.42-8-.48a.79.79,0,0,1-.25-.77c.16-1.37,2.15-3.6,4.08-4.59a.66.66,0,0,0,.33-.84.68.68,0,0,0-.8-.43c-1.63.42-6.19,1.2-7.77-.12-.23-.19-.22-.33-.2-.4a2.26,2.26,0,0,1,.78-1.15,16.33,16.33,0,0,1,3.58-2.39.68.68,0,0,0,.29-.29.67.67,0,0,0,0-.63.68.68,0,0,0-.91-.3,18.06,18.06,0,0,0-3.61,2.35,5.81,5.81,0,0,0-1.17,1.36,2.29,2.29,0,0,0-.33.9,1.75,1.75,0,0,0,.69,1.6C470.12,354.17,472.71,354.18,474.76,353.94Z" transform="translate(152.94 -195.4)"/>
          <path class="cls-15" d="M467.29,344.71a.66.66,0,0,1,.23.73,4.37,4.37,0,0,0-.24,2.17.76.76,0,0,0,.5.63,2.65,2.65,0,0,0,1.19,0,20,20,0,0,0,4.51-1.42.68.68,0,0,1-.29.29,16.33,16.33,0,0,0-3.58,2.39l-.47.08a5.52,5.52,0,0,1-1.34,0,3.06,3.06,0,0,1-.48-.12,2.11,2.11,0,0,1-1.36-1.59,5.68,5.68,0,0,1,.26-2.91.67.67,0,0,1,1.06-.32Z" transform="translate(152.94 -195.4)"/>
          <path class="cls-15" d="M455.4,348.09a22.44,22.44,0,0,0,5,1.89,7.63,7.63,0,0,0,4.05,0,3.37,3.37,0,0,0,2.07-1.92c1.44-3.31-1.22-6.57-2.94-8.22-.38.63-.59,1-.59,1s-.22-.1-.6-.24c1.46,1.34,4.05,4.24,2.88,6.92a2,2,0,0,1-1.27,1.17c-2.28.8-6.54-1-8-1.82a.67.67,0,0,0-.92.28A.68.68,0,0,0,455.4,348.09Z" transform="translate(152.94 -195.4)"/>
          <path class="cls-15" d="M464,365.62a.68.68,0,0,0,.61-1.16,6.14,6.14,0,0,1-2.17-4.72c.1-4.5,5.08-8.77,5.13-8.81a.67.67,0,0,0,.08-1,.68.68,0,0,0-1-.08c-.22.19-5.5,4.71-5.61,9.82a7.39,7.39,0,0,0,2.6,5.74A.71.71,0,0,0,464,365.62Z" transform="translate(152.94 -195.4)"/>
        </g>
      </g>
      <g>
        <path class="cls-7" d="M407.07,344.27s10.87,29.13,19,40.11c0,0-12.87,18.84-32.09,20.13L383,383S391.68,347.79,407.07,344.27Z" transform="translate(152.94 -195.4)"/>
        <path class="cls-7" d="M416.87,387.4a.66.66,0,0,1-.6-.43l-1.79-4.75a.69.69,0,0,1,.35-.89.65.65,0,0,1,.85.38l1.79,4.74a.69.69,0,0,1-.36.9A.64.64,0,0,1,416.87,387.4Z" transform="translate(152.94 -195.4)"/>
        <path class="cls-7" d="M397.36,394.83a1,1,0,0,1-.56-.16,1.06,1.06,0,0,1-.34-1.46l4.14-6.68a1.05,1.05,0,1,1,1.79,1.11l-4.14,6.69A1,1,0,0,1,397.36,394.83Z" transform="translate(152.94 -195.4)"/>
        <g>
          <path class="cls-14" d="M388.92,394.71h0a.74.74,0,0,1-.43-1c.08-.21,7.86-21,14.61-31.17a.75.75,0,0,1,1-.21.74.74,0,0,1,.21,1c-6.66,10.07-14.38,30.66-14.46,30.87A.73.73,0,0,1,388.92,394.71Z" transform="translate(152.94 -195.4)"/>
          <path class="cls-14" d="M398,373.5a.76.76,0,0,1-.47-.5.74.74,0,0,1,.5-.92l6.07-1.78a.75.75,0,0,1,.42,1.43l-6.07,1.77A.77.77,0,0,1,398,373.5Z" transform="translate(152.94 -195.4)"/>
        </g>
      </g>
    </g>
    <g>
      <polygon class="cls-17" points="829.94 630.78 965.04 630.78 946.43 480.43 848.54 480.43 829.94 630.78"/>
      <polygon points="836.77 630.78 971.87 630.78 953.26 480.43 855.38 480.43 836.77 630.78"/>
      <path class="cls-7" d="M772.37,756.05c-2-4.39-6.55-6.63-11.19-8.07-5.32-1.65-10.82-2.24-13-3.8a2,2,0,0,1-1-1.74c0-1.57,1.43-2.85,5.58-2.89h.84A29.46,29.46,0,0,1,766,743.05l1,.52,1.25-2.79,4-9a31.71,31.71,0,0,0-8.6-3.44,43.72,43.72,0,0,0-5.43-1l.13-4.49.09-3-9.83-.28-.21,7.59c-11.47,1.28-17.37,7.74-17.59,15.61a12.5,12.5,0,0,0,6.8,12c3.89,2.23,8.75,3.25,12.66,4.19s7,1.86,6.94,3.92c0,1.67-1.74,2.6-6.41,2.47a30.26,30.26,0,0,1-6-.83,33.27,33.27,0,0,1-10-4.09l-5.64,11.83a27.24,27.24,0,0,0,5.38,2.65A47.9,47.9,0,0,0,747,777.72l-.12,4.24-.09,3.14,9.82.28.22-7.73c10.85-1.58,16.47-8,16.68-15.49A13.3,13.3,0,0,0,772.37,756.05Z" transform="translate(152.94 -195.4)"/>
      <g>
        <path class="cls-7" d="M768.27,683.36a4.62,4.62,0,1,0,4.61-4.61A4.6,4.6,0,0,0,768.27,683.36Z" transform="translate(152.94 -195.4)"/>
        <path class="cls-7" d="M721.06,683.36a4.61,4.61,0,1,0,4.61-4.61A4.6,4.6,0,0,0,721.06,683.36Z" transform="translate(152.94 -195.4)"/>
        <path class="cls-4" d="M772.77,682.82h0a1.92,1.92,0,0,0,1.87-2,203.38,203.38,0,0,0-3.6-29.28c-4.49-21.53-12-32.44-22.28-32.44S731.13,630,727,651.56A202.32,202.32,0,0,0,724,680.84a1.93,1.93,0,0,0,1.91,2h0a1.92,1.92,0,0,0,1.94-1.87c.43-17.82,4.8-58,20.93-58s21.27,40.21,22,58A1.92,1.92,0,0,0,772.77,682.82Z" transform="translate(152.94 -195.4)"/>
        <path class="cls-4" d="M764.19,682.82h0a1.85,1.85,0,0,0,1.81-2,196.22,196.22,0,0,0-3.49-28.31c-4.33-20.82-11.58-31.38-21.54-31.38s-17,10.57-21,31.41a194,194,0,0,0-3,28.32,1.85,1.85,0,0,0,1.84,1.91h0a1.86,1.86,0,0,0,1.88-1.81c.42-17.23,4.64-56.09,20.24-56.09s20.57,38.89,21.31,56.12A1.85,1.85,0,0,0,764.19,682.82Z" transform="translate(152.94 -195.4)"/>
      </g>
    </g>
    <g>
      <path class="cls-4" d="M695.39,745h0c.83,0,1.47-1.11,1.4-2.36A103.45,103.45,0,0,0,693,720.34c-4.9-16.41-13.58-25.09-25.1-25.09s-20.06,8.69-24.66,25.14a102.27,102.27,0,0,0-3.39,22.35c-.05,1.25.61,2.3,1.44,2.3h0c.77,0,1.4-.89,1.45-2a97,97,0,0,1,3.19-21c4.18-14.84,11.58-22.37,22-22.37s18,7.58,22.47,22.53a97.56,97.56,0,0,1,3.56,20.93C694,744.21,694.62,745.08,695.39,745Z" transform="translate(152.94 -195.4)"/>
      <polygon class="cls-4" points="752.74 630.83 891.44 630.83 878.67 533.08 765.51 533.08 752.74 630.83"/>
      <polygon class="cls-7" points="760.05 630.83 898.75 630.83 885.98 533.08 772.82 533.08 760.05 630.83"/>
      <path d="M650.79,778.17a25.67,25.67,0,1,0,25.67-25.67A25.7,25.7,0,0,0,650.79,778.17Zm14.41,9.48a33.82,33.82,0,0,1-1.37-9h11.6v9Zm6,13.55a23.51,23.51,0,0,1-15.37-11.49h7.82a28.44,28.44,0,0,0,4.46,8.19A27,27,0,0,0,671.25,801.2Zm4.18-11.49v12a21.35,21.35,0,0,1-5.7-5.2,26.19,26.19,0,0,1-3.83-6.84Zm-9-24.18a32,32,0,0,1,8-10.88l.92-.06v10.94Zm-9.92,0a23.76,23.76,0,0,1,14.37-10.31,34.85,34.85,0,0,0-6.7,10.31Zm7.3,11.06a29.49,29.49,0,0,1,1.78-9h9.81v9Zm-10.93,0a23.31,23.31,0,0,1,2.45-9h8.07a31.44,31.44,0,0,0-1.66,9Zm8.85,2.07a36.26,36.26,0,0,0,1.29,9h-8.21a23.52,23.52,0,0,1-2-9Zm29.16,0h9.14a23.34,23.34,0,0,1-2,9h-8.44A36.26,36.26,0,0,0,690.92,778.66Zm-13.43-13.13V754.59l.66,0a30.67,30.67,0,0,1,5.21,5.83,32.17,32.17,0,0,1,2.87,5.08Zm9.58,2.07a29.55,29.55,0,0,1,1.78,9H677.49v-9Zm1.41-2.07a33.29,33.29,0,0,0-3.46-6.3,34.93,34.93,0,0,0-3.32-4.08,23.76,23.76,0,0,1,14.69,10.38Zm.38,13.13a33.63,33.63,0,0,1-1.37,9h-10v-9Zm2-2.07a31.77,31.77,0,0,0-1.65-9h8.3a23.14,23.14,0,0,1,2.45,9Zm6.14,13.12a23.84,23.84,0,0,1-15.69,11.55,26.69,26.69,0,0,0,3.17-3.36,28.92,28.92,0,0,0,4.46-8.19Zm-10.27,0a24.3,24.3,0,0,1-9.29,11.9v-11.9Z" transform="translate(152.94 -195.4)"/>
      <g>
        <path class="cls-4" d="M645.35,737.35a4.45,4.45,0,1,0,4.44-4.67A4.57,4.57,0,0,0,645.35,737.35Z" transform="translate(152.94 -195.4)"/>
        <path class="cls-4" d="M698.94,737.35a4.45,4.45,0,1,0,4.44-4.67A4.57,4.57,0,0,0,698.94,737.35Z" transform="translate(152.94 -195.4)"/>
        <path class="cls-4" d="M703.49,738.65a1.45,1.45,0,0,1-1.45-1.3A93.21,93.21,0,0,0,698.87,721c-4.47-14.95-12-22.53-22.46-22.53s-17.79,7.53-22,22.37a91.29,91.29,0,0,0-2.88,16.44,1.46,1.46,0,0,1-1.45,1.33h0a1.46,1.46,0,0,1-1.46-1.58,98.76,98.76,0,0,1,3.1-17.77c4.61-16.45,13.14-25.14,24.67-25.14s20.19,8.68,25.09,25.09A99.77,99.77,0,0,1,704.94,737a1.46,1.46,0,0,1-1.45,1.61Z" transform="translate(152.94 -195.4)"/>
      </g>
    </g>
    <g>
      <g>
        <path class="cls-2" d="M422.81,508h-.25a24.91,24.91,0,0,1-24.84-25v-.18A24.94,24.94,0,0,1,422.62,458h.25a24.93,24.93,0,0,1,24.84,25v.19A24.89,24.89,0,0,1,422.81,508Zm-.05-1.7h.05A23.2,23.2,0,0,0,446,483.15V483a23.22,23.22,0,0,0-23.14-23.25h-.25a23.22,23.22,0,0,0-23.19,23.14V483a23.18,23.18,0,0,0,23.14,23.25Z" transform="translate(152.94 -195.4)"/>
        <path class="cls-2" d="M423.15,499.58h0a.86.86,0,0,1-.61-.25l-12.05-12.1a10,10,0,0,1,0-14.06,7.29,7.29,0,0,1,5.9-2.23c2.44.25,4.81,1.75,6.78,4.28,2-2.52,4.36-4,6.8-4.25a7.3,7.3,0,0,1,5.89,2.25,10,10,0,0,1,0,14.06l-12.1,12.05A.86.86,0,0,1,423.15,499.58Zm-7.43-27a5.62,5.62,0,0,0-4,1.76,8.27,8.27,0,0,0,0,11.65l11.45,11.51,11.5-11.45a8.19,8.19,0,0,0,2.42-5.82h0a8.17,8.17,0,0,0-2.39-5.82,5.5,5.5,0,0,0-4.52-1.76c-2.22.21-4.45,1.8-6.26,4.48a.85.85,0,0,1-.7.37h0a.84.84,0,0,1-.71-.38c-1.8-2.68-4-4.28-6.24-4.5A4.71,4.71,0,0,0,415.72,472.61Z" transform="translate(152.94 -195.4)"/>
      </g>
      <path class="cls-2" d="M258,312.82H250.5a1.68,1.68,0,0,1-1.68-1.68v-8.08h-8.08a1.68,1.68,0,0,1-1.68-1.68v-7.49a1.68,1.68,0,0,1,1.68-1.68h8.08v-8.09a1.69,1.69,0,0,1,1.68-1.68H258a1.68,1.68,0,0,1,1.68,1.68v8.09h8.09a1.68,1.68,0,0,1,1.68,1.68v7.49a1.68,1.68,0,0,1-1.68,1.68h-8.09v8.08A1.68,1.68,0,0,1,258,312.82Zm-17.25-19.09a.17.17,0,0,0-.17.16v7.49a.17.17,0,0,0,.17.16h9.6v9.6a.17.17,0,0,0,.16.17H258a.18.18,0,0,0,.17-.17v-9.6h9.6a.16.16,0,0,0,.16-.16v-7.49a.16.16,0,0,0-.16-.16h-9.6v-9.61A.17.17,0,0,0,258,284H250.5a.16.16,0,0,0-.16.16v9.61Z" transform="translate(152.94 -195.4)"/>
      <path class="cls-2" d="M855.26,759h-7.49a1.68,1.68,0,0,1-1.68-1.68v-8.08H838a1.68,1.68,0,0,1-1.68-1.68v-7.49a1.68,1.68,0,0,1,1.68-1.68h8.08v-8.09a1.68,1.68,0,0,1,1.68-1.68h7.49a1.68,1.68,0,0,1,1.68,1.68v8.09H865a1.68,1.68,0,0,1,1.68,1.68v7.49a1.68,1.68,0,0,1-1.68,1.68h-8.09v8.08A1.68,1.68,0,0,1,855.26,759ZM838,739.94a.18.18,0,0,0-.17.17v7.49a.17.17,0,0,0,.17.16h9.6v9.6a.17.17,0,0,0,.16.17h7.49a.18.18,0,0,0,.17-.17v-9.6H865a.16.16,0,0,0,.16-.16v-7.49a.17.17,0,0,0-.16-.17h-9.6v-9.6a.17.17,0,0,0-.17-.16h-7.49a.16.16,0,0,0-.16.16v9.6Z" transform="translate(152.94 -195.4)"/>
      <g>
        <path class="cls-2" d="M324.67,260.93l-10.41-11.29a39.64,39.64,0,0,1-15,2.91c-18.63,0-33.79-12.49-33.79-27.84s15.16-27.84,33.79-27.84,33.82,12.49,33.82,27.84c0,7.48-3.7,14.7-10.18,19.88l3.2,15.59a.85.85,0,0,1-.83,1A.83.83,0,0,1,324.67,260.93Zm-57.46-36.22c0,14.41,14.39,26.13,32.08,26.13a37.63,37.63,0,0,0,14.85-3,.86.86,0,0,1,1,.21l8.74,9.48-2.69-13.11a.88.88,0,0,1,.31-.85c6.31-4.88,9.93-11.75,9.93-18.86,0-14.41-14.4-26.14-32.11-26.14S267.21,210.3,267.21,224.71Z" transform="translate(152.94 -195.4)"/>
        <g>
          <path class="cls-2" d="M308.05,224.27a5.49,5.49,0,1,1,5.49,5.49A5.49,5.49,0,0,1,308.05,224.27Zm1.7,0a3.79,3.79,0,1,0,3.79-3.78A3.79,3.79,0,0,0,309.75,224.27Z" transform="translate(152.94 -195.4)"/>
          <path class="cls-2" d="M293.54,224.27a5.48,5.48,0,1,1,5.48,5.49A5.49,5.49,0,0,1,293.54,224.27Zm1.7,0a3.78,3.78,0,1,0,3.78-3.78A3.79,3.79,0,0,0,295.24,224.27Z" transform="translate(152.94 -195.4)"/>
          <path class="cls-2" d="M279,224.27a5.49,5.49,0,1,1,5.49,5.49A5.49,5.49,0,0,1,279,224.27Zm1.7,0a3.79,3.79,0,1,0,3.79-3.78A3.79,3.79,0,0,0,280.72,224.27Z" transform="translate(152.94 -195.4)"/>
        </g>
      </g>
    </g>
    <path class="cls-7" d="M-151.49,700.5a1.5,1.5,0,0,0,0-3,1.5,1.5,0,0,0,0,3Z" transform="translate(152.94 -195.4)"/>
  </g>
  <g>
    <path class="cls-18" d="M421.61,282.44c-.46,1.73-4.24,2.23-8.44,1.11s-7.22-3.42-6.76-5.15,4.24-2.23,8.43-1.12S422.07,280.71,421.61,282.44Z" transform="translate(152.94 -195.4)"/>
    <path class="cls-6" d="M408,278.74a.53.53,0,0,1-.4-.18c-3.93-4.35-13.74-4.31-13.88-4.32h0a.53.53,0,0,1,0-1.06c.39,0,10.42,0,14.67,4.68a.52.52,0,0,1,0,.74A.54.54,0,0,1,408,278.74Z" transform="translate(152.94 -195.4)"/>
    <path class="cls-18" d="M439.82,287.77c-.46,1.73-4.24,2.23-8.43,1.12s-7.23-3.43-6.77-5.16,4.24-2.23,8.43-1.12S440.28,286,439.82,287.77Z" transform="translate(152.94 -195.4)"/>
    <path class="cls-6" d="M426,284.84h0a.53.53,0,0,1-.5-.55,2.31,2.31,0,0,0-1.85-2.11,3.28,3.28,0,0,0-3.13.31.52.52,0,0,1-.69-.79,4.28,4.28,0,0,1,4.14-.53,3.36,3.36,0,0,1,2.58,3.17A.52.52,0,0,1,426,284.84Z" transform="translate(152.94 -195.4)"/>
  </g>
</svg>
